<svg width="161" height="54" viewBox="0 0 161 54" fill="none" xmlns="http://www.w3.org/2000/svg">
<g filter="url(#filter0_d_15_59)">
<circle cx="27" cy="25" r="17" fill="white"/>
</g>
<path d="M24.9019 19.5C26.0566 17.5 28.9434 17.5 30.0981 19.5L33.9952 26.25C35.1499 28.25 33.7065 30.75 31.3971 30.75H23.6029C21.2935 30.75 19.8501 28.25 21.0048 26.25L24.9019 19.5Z" fill="#FE7234"/>
<path d="M58.88 20.74H54.08V19H65.66V20.74H60.86V33H58.88V20.74ZM76.4445 27.76C76.4445 27.9067 76.4312 28.1 76.4045 28.34H67.8045C67.9245 29.2733 68.3312 30.0267 69.0245 30.6C69.7312 31.16 70.6045 31.44 71.6445 31.44C72.9112 31.44 73.9312 31.0133 74.7045 30.16L75.7645 31.4C75.2845 31.96 74.6845 32.3867 73.9645 32.68C73.2579 32.9733 72.4645 33.12 71.5845 33.12C70.4645 33.12 69.4712 32.8933 68.6045 32.44C67.7379 31.9733 67.0645 31.3267 66.5845 30.5C66.1179 29.6733 65.8845 28.74 65.8845 27.7C65.8845 26.6733 66.1112 25.7467 66.5645 24.92C67.0312 24.0933 67.6645 23.4533 68.4645 23C69.2779 22.5333 70.1912 22.3 71.2045 22.3C72.2179 22.3 73.1179 22.5333 73.9045 23C74.7045 23.4533 75.3245 24.0933 75.7645 24.92C76.2179 25.7467 76.4445 26.6933 76.4445 27.76ZM71.2045 23.92C70.2845 23.92 69.5112 24.2 68.8845 24.76C68.2712 25.32 67.9112 26.0533 67.8045 26.96H74.6045C74.4979 26.0667 74.1312 25.34 73.5045 24.78C72.8912 24.2067 72.1245 23.92 71.2045 23.92ZM83.0777 22.3C84.5443 22.3 85.6643 22.66 86.4377 23.38C87.2243 24.1 87.6177 25.1733 87.6177 26.6V33H85.7977V31.6C85.4777 32.0933 85.0177 32.4733 84.4177 32.74C83.831 32.9933 83.131 33.12 82.3177 33.12C81.131 33.12 80.1777 32.8333 79.4577 32.26C78.751 31.6867 78.3977 30.9333 78.3977 30C78.3977 29.0667 78.7377 28.32 79.4177 27.76C80.0977 27.1867 81.1777 26.9 82.6577 26.9H85.6977V26.52C85.6977 25.6933 85.4577 25.06 84.9777 24.62C84.4977 24.18 83.791 23.96 82.8577 23.96C82.231 23.96 81.6177 24.0667 81.0177 24.28C80.4177 24.48 79.911 24.7533 79.4977 25.1L78.6977 23.66C79.2443 23.22 79.8977 22.8867 80.6577 22.66C81.4177 22.42 82.2243 22.3 83.0777 22.3ZM82.6377 31.64C83.371 31.64 84.0043 31.48 84.5377 31.16C85.071 30.8267 85.4577 30.36 85.6977 29.76V28.28H82.7377C81.111 28.28 80.2977 28.8267 80.2977 29.92C80.2977 30.4533 80.5043 30.8733 80.9177 31.18C81.331 31.4867 81.9043 31.64 82.6377 31.64ZM104.831 22.3C106.164 22.3 107.217 22.6867 107.991 23.46C108.777 24.2333 109.171 25.38 109.171 26.9V33H107.251V27.12C107.251 26.0933 107.011 25.32 106.531 24.8C106.064 24.28 105.391 24.02 104.511 24.02C103.537 24.02 102.764 24.3267 102.191 24.94C101.617 25.54 101.331 26.4067 101.331 27.54V33H99.4108V27.12C99.4108 26.0933 99.1708 25.32 98.6908 24.8C98.2241 24.28 97.5508 24.02 96.6708 24.02C95.6974 24.02 94.9241 24.3267 94.3508 24.94C93.7774 25.54 93.4908 26.4067 93.4908 27.54V33H91.5708V22.4H93.4108V23.98C93.7974 23.4333 94.3041 23.02 94.9308 22.74C95.5574 22.4467 96.2708 22.3 97.0708 22.3C97.8974 22.3 98.6308 22.4667 99.2708 22.8C99.9108 23.1333 100.404 23.62 100.751 24.26C101.151 23.6467 101.704 23.1667 102.411 22.82C103.131 22.4733 103.937 22.3 104.831 22.3ZM119.644 33.16C118.244 33.16 116.977 32.8533 115.844 32.24C114.724 31.6133 113.844 30.76 113.204 29.68C112.564 28.5867 112.244 27.36 112.244 26C112.244 24.64 112.564 23.42 113.204 22.34C113.844 21.2467 114.73 20.3933 115.864 19.78C116.997 19.1533 118.264 18.84 119.664 18.84C120.757 18.84 121.757 19.0267 122.664 19.4C123.57 19.76 124.344 20.3 124.984 21.02L123.684 22.28C122.63 21.1733 121.317 20.62 119.744 20.62C118.704 20.62 117.764 20.8533 116.924 21.32C116.084 21.7867 115.424 22.4333 114.944 23.26C114.477 24.0733 114.244 24.9867 114.244 26C114.244 27.0133 114.477 27.9333 114.944 28.76C115.424 29.5733 116.084 30.2133 116.924 30.68C117.764 31.1467 118.704 31.38 119.744 31.38C121.304 31.38 122.617 30.82 123.684 29.7L124.984 30.96C124.344 31.68 123.564 32.2267 122.644 32.6C121.737 32.9733 120.737 33.16 119.644 33.16ZM133.617 22.3C134.963 22.3 136.03 22.6933 136.817 23.48C137.617 24.2533 138.017 25.3933 138.017 26.9V33H136.097V27.12C136.097 26.0933 135.85 25.32 135.357 24.8C134.863 24.28 134.157 24.02 133.237 24.02C132.197 24.02 131.377 24.3267 130.777 24.94C130.177 25.54 129.877 26.4067 129.877 27.54V33H127.957V18.16H129.877V23.9C130.277 23.3933 130.797 23 131.437 22.72C132.09 22.44 132.817 22.3 133.617 22.3ZM145.83 22.3C147.297 22.3 148.417 22.66 149.19 23.38C149.977 24.1 150.37 25.1733 150.37 26.6V33H148.55V31.6C148.23 32.0933 147.77 32.4733 147.17 32.74C146.583 32.9933 145.883 33.12 145.07 33.12C143.883 33.12 142.93 32.8333 142.21 32.26C141.503 31.6867 141.15 30.9333 141.15 30C141.15 29.0667 141.49 28.32 142.17 27.76C142.85 27.1867 143.93 26.9 145.41 26.9H148.45V26.52C148.45 25.6933 148.21 25.06 147.73 24.62C147.25 24.18 146.543 23.96 145.61 23.96C144.983 23.96 144.37 24.0667 143.77 24.28C143.17 24.48 142.663 24.7533 142.25 25.1L141.45 23.66C141.997 23.22 142.65 22.8867 143.41 22.66C144.17 22.42 144.977 22.3 145.83 22.3ZM145.39 31.64C146.123 31.64 146.757 31.48 147.29 31.16C147.823 30.8267 148.21 30.36 148.45 29.76V28.28H145.49C143.863 28.28 143.05 28.8267 143.05 29.92C143.05 30.4533 143.257 30.8733 143.67 31.18C144.083 31.4867 144.657 31.64 145.39 31.64ZM160.283 32.38C160.003 32.62 159.656 32.8067 159.243 32.94C158.83 33.06 158.403 33.12 157.963 33.12C156.896 33.12 156.07 32.8333 155.483 32.26C154.896 31.6867 154.603 30.8667 154.603 29.8V23.98H152.803V22.4H154.603V20.08H156.523V22.4H159.563V23.98H156.523V29.72C156.523 30.2933 156.663 30.7333 156.943 31.04C157.236 31.3467 157.65 31.5 158.183 31.5C158.77 31.5 159.27 31.3333 159.683 31L160.283 32.38Z" fill="#222222"/>
<defs>
<filter id="filter0_d_15_59" x="0" y="0" width="54" height="54" filterUnits="userSpaceOnUse" color-interpolation-filters="sRGB">
<feFlood flood-opacity="0" result="BackgroundImageFix"/>
<feColorMatrix in="SourceAlpha" type="matrix" values="0 0 0 0 0 0 0 0 0 0 0 0 0 0 0 0 0 0 127 0" result="hardAlpha"/>
<feOffset dy="2"/>
<feGaussianBlur stdDeviation="5"/>
<feComposite in2="hardAlpha" operator="out"/>
<feColorMatrix type="matrix" values="0 0 0 0 0 0 0 0 0 0 0 0 0 0 0 0 0 0 0.1 0"/>
<feBlend mode="normal" in2="BackgroundImageFix" result="effect1_dropShadow_15_59"/>
<feBlend mode="normal" in="SourceGraphic" in2="effect1_dropShadow_15_59" result="shape"/>
</filter>
</defs>
</svg>
