<svg width="31" height="29" viewBox="0 0 31 29" fill="none" xmlns="http://www.w3.org/2000/svg">
<path d="M28.2338 12.6343H7.29004L16.44 3.48435C17.1713 2.7531 17.1713 1.5531 16.44 0.821848C16.0897 0.470749 15.6141 0.273438 15.1182 0.273438C14.6222 0.273438 14.1466 0.470749 13.7963 0.821848L1.44004 13.1781C0.708789 13.9093 0.708789 15.0906 1.44004 15.8218L13.7963 28.1781C14.5275 28.9093 15.7088 28.9093 16.44 28.1781C17.1713 27.4468 17.1713 26.2656 16.44 25.5343L7.29004 16.3843H28.2338C29.265 16.3843 30.1088 15.5406 30.1088 14.5093C30.1088 13.4781 29.265 12.6343 28.2338 12.6343Z" fill="#5A59A4"/>
</svg>
