<svg width="178" height="34" viewBox="0 0 178 34" fill="none" xmlns="http://www.w3.org/2000/svg">
<circle cx="17" cy="17" r="17" fill="white"/>
<path d="M50.1 12.675H44.1V10.5H58.575V12.675H52.575V28H50.1V12.675ZM72.0557 21.45C72.0557 21.6333 72.039 21.875 72.0057 22.175H61.2557C61.4057 23.3417 61.914 24.2833 62.7807 25C63.664 25.7 64.7557 26.05 66.0557 26.05C67.639 26.05 68.914 25.5167 69.8807 24.45L71.2057 26C70.6057 26.7 69.8557 27.2333 68.9557 27.6C68.0723 27.9667 67.0807 28.15 65.9807 28.15C64.5807 28.15 63.339 27.8667 62.2557 27.3C61.1723 26.7167 60.3307 25.9083 59.7307 24.875C59.1473 23.8417 58.8557 22.675 58.8557 21.375C58.8557 20.0917 59.139 18.9333 59.7057 17.9C60.289 16.8667 61.0807 16.0667 62.0807 15.5C63.0973 14.9167 64.239 14.625 65.5057 14.625C66.7723 14.625 67.8973 14.9167 68.8807 15.5C69.8807 16.0667 70.6557 16.8667 71.2057 17.9C71.7723 18.9333 72.0557 20.1167 72.0557 21.45ZM65.5057 16.65C64.3557 16.65 63.389 17 62.6057 17.7C61.839 18.4 61.389 19.3167 61.2557 20.45H69.7557C69.6223 19.3333 69.164 18.425 68.3807 17.725C67.614 17.0083 66.6557 16.65 65.5057 16.65ZM80.3471 14.625C82.1804 14.625 83.5804 15.075 84.5471 15.975C85.5304 16.875 86.0221 18.2167 86.0221 20V28H83.7471V26.25C83.3471 26.8667 82.7721 27.3417 82.0221 27.675C81.2887 27.9917 80.4137 28.15 79.3971 28.15C77.9137 28.15 76.7221 27.7917 75.8221 27.075C74.9387 26.3583 74.4971 25.4167 74.4971 24.25C74.4971 23.0833 74.9221 22.15 75.7721 21.45C76.6221 20.7333 77.9721 20.375 79.8221 20.375H83.6221V19.9C83.6221 18.8667 83.3221 18.075 82.7221 17.525C82.1221 16.975 81.2387 16.7 80.0721 16.7C79.2887 16.7 78.5221 16.8333 77.7721 17.1C77.0221 17.35 76.3887 17.6917 75.8721 18.125L74.8721 16.325C75.5554 15.775 76.3721 15.3583 77.3221 15.075C78.2721 14.775 79.2804 14.625 80.3471 14.625ZM79.7971 26.3C80.7137 26.3 81.5054 26.1 82.1721 25.7C82.8387 25.2833 83.3221 24.7 83.6221 23.95V22.1H79.9221C77.8887 22.1 76.8721 22.7833 76.8721 24.15C76.8721 24.8167 77.1304 25.3417 77.6471 25.725C78.1637 26.1083 78.8804 26.3 79.7971 26.3ZM107.538 14.625C109.205 14.625 110.522 15.1083 111.488 16.075C112.472 17.0417 112.963 18.475 112.963 20.375V28H110.563V20.65C110.563 19.3667 110.263 18.4 109.663 17.75C109.08 17.1 108.238 16.775 107.138 16.775C105.922 16.775 104.955 17.1583 104.238 17.925C103.522 18.675 103.163 19.7583 103.163 21.175V28H100.763V20.65C100.763 19.3667 100.463 18.4 99.8635 17.75C99.2801 17.1 98.4385 16.775 97.3385 16.775C96.1218 16.775 95.1551 17.1583 94.4385 17.925C93.7218 18.675 93.3635 19.7583 93.3635 21.175V28H90.9635V14.75H93.2635V16.725C93.7468 16.0417 94.3801 15.525 95.1635 15.175C95.9468 14.8083 96.8385 14.625 97.8385 14.625C98.8718 14.625 99.7885 14.8333 100.588 15.25C101.388 15.6667 102.005 16.275 102.438 17.075C102.938 16.3083 103.63 15.7083 104.513 15.275C105.413 14.8417 106.422 14.625 107.538 14.625ZM126.054 28.2C124.304 28.2 122.721 27.8167 121.304 27.05C119.904 26.2667 118.804 25.2 118.004 23.85C117.204 22.4833 116.804 20.95 116.804 19.25C116.804 17.55 117.204 16.025 118.004 14.675C118.804 13.3083 119.913 12.2417 121.329 11.475C122.746 10.6917 124.329 10.3 126.079 10.3C127.446 10.3 128.696 10.5333 129.829 11C130.963 11.45 131.929 12.125 132.729 13.025L131.104 14.6C129.788 13.2167 128.146 12.525 126.179 12.525C124.879 12.525 123.704 12.8167 122.654 13.4C121.604 13.9833 120.779 14.7917 120.179 15.825C119.596 16.8417 119.304 17.9833 119.304 19.25C119.304 20.5167 119.596 21.6667 120.179 22.7C120.779 23.7167 121.604 24.5167 122.654 25.1C123.704 25.6833 124.879 25.975 126.179 25.975C128.129 25.975 129.771 25.275 131.104 23.875L132.729 25.45C131.929 26.35 130.954 27.0333 129.804 27.5C128.671 27.9667 127.421 28.2 126.054 28.2ZM143.521 14.625C145.204 14.625 146.538 15.1167 147.521 16.1C148.521 17.0667 149.021 18.4917 149.021 20.375V28H146.621V20.65C146.621 19.3667 146.313 18.4 145.696 17.75C145.079 17.1 144.196 16.775 143.046 16.775C141.746 16.775 140.721 17.1583 139.971 17.925C139.221 18.675 138.846 19.7583 138.846 21.175V28H136.446V9.45H138.846V16.625C139.346 15.9917 139.996 15.5 140.796 15.15C141.613 14.8 142.521 14.625 143.521 14.625ZM158.788 14.625C160.621 14.625 162.021 15.075 162.988 15.975C163.971 16.875 164.463 18.2167 164.463 20V28H162.188V26.25C161.788 26.8667 161.213 27.3417 160.463 27.675C159.729 27.9917 158.854 28.15 157.838 28.15C156.354 28.15 155.163 27.7917 154.263 27.075C153.379 26.3583 152.938 25.4167 152.938 24.25C152.938 23.0833 153.363 22.15 154.213 21.45C155.063 20.7333 156.413 20.375 158.263 20.375H162.063V19.9C162.063 18.8667 161.763 18.075 161.163 17.525C160.563 16.975 159.679 16.7 158.513 16.7C157.729 16.7 156.963 16.8333 156.213 17.1C155.463 17.35 154.829 17.6917 154.313 18.125L153.313 16.325C153.996 15.775 154.813 15.3583 155.763 15.075C156.713 14.775 157.721 14.625 158.788 14.625ZM158.238 26.3C159.154 26.3 159.946 26.1 160.613 25.7C161.279 25.2833 161.763 24.7 162.063 23.95V22.1H158.363C156.329 22.1 155.313 22.7833 155.313 24.15C155.313 24.8167 155.571 25.3417 156.088 25.725C156.604 26.1083 157.321 26.3 158.238 26.3ZM176.854 27.225C176.504 27.525 176.071 27.7583 175.554 27.925C175.037 28.075 174.504 28.15 173.954 28.15C172.621 28.15 171.587 27.7917 170.854 27.075C170.121 26.3583 169.754 25.3333 169.754 24V16.725H167.504V14.75H169.754V11.85H172.154V14.75H175.954V16.725H172.154V23.9C172.154 24.6167 172.329 25.1667 172.679 25.55C173.046 25.9333 173.562 26.125 174.229 26.125C174.962 26.125 175.587 25.9167 176.104 25.5L176.854 27.225Z" fill="white"/>
<path d="M14.9019 11.5C16.0566 9.5 18.9434 9.5 20.0981 11.5L23.9952 18.25C25.1499 20.25 23.7065 22.75 21.3971 22.75H13.6029C11.2935 22.75 9.85011 20.25 11.0048 18.25L14.9019 11.5Z" fill="#FE7234"/>
</svg>
