<svg width="261" height="133" viewBox="0 0 261 133" fill="none" xmlns="http://www.w3.org/2000/svg">
<g filter="url(#filter0_d_13_387)">
<rect x="15" y="13" width="231" height="103" rx="10" fill="white"/>
</g>
<path d="M29.504 53.8H34.4C35.5947 53.8 36.656 54.0347 37.584 54.504C38.512 54.9627 39.232 55.6187 39.744 56.472C40.256 57.3147 40.512 58.2907 40.512 59.4C40.512 60.5093 40.256 61.4907 39.744 62.344C39.232 63.1867 38.512 63.8427 37.584 64.312C36.656 64.7707 35.5947 65 34.4 65H29.504V53.8ZM34.304 63.24C35.1253 63.24 35.8453 63.0853 36.464 62.776C37.0933 62.456 37.5733 62.008 37.904 61.432C38.2453 60.8453 38.416 60.168 38.416 59.4C38.416 58.632 38.2453 57.96 37.904 57.384C37.5733 56.7973 37.0933 56.3493 36.464 56.04C35.8453 55.72 35.1253 55.56 34.304 55.56H31.584V63.24H34.304ZM44.4348 57.704C45.0108 56.808 46.0241 56.36 47.4748 56.36V58.264C47.3041 58.232 47.1494 58.216 47.0108 58.216C46.2321 58.216 45.6241 58.4453 45.1868 58.904C44.7494 59.352 44.5308 60.0027 44.5308 60.856V65H42.5308V56.456H44.4348V57.704ZM52.3885 56.36C53.6472 56.36 54.6072 56.664 55.2685 57.272C55.9405 57.8693 56.2765 58.776 56.2765 59.992V65H54.3885V63.96C54.1432 64.3333 53.7912 64.6213 53.3325 64.824C52.8845 65.016 52.3405 65.112 51.7005 65.112C51.0605 65.112 50.5005 65.0053 50.0205 64.792C49.5405 64.568 49.1672 64.264 48.9005 63.88C48.6445 63.4853 48.5165 63.0427 48.5165 62.552C48.5165 61.784 48.7992 61.1707 49.3645 60.712C49.9405 60.2427 50.8418 60.008 52.0685 60.008H54.2765V59.88C54.2765 59.2827 54.0952 58.824 53.7325 58.504C53.3805 58.184 52.8525 58.024 52.1485 58.024C51.6685 58.024 51.1938 58.0987 50.7245 58.248C50.2658 58.3973 49.8765 58.6053 49.5565 58.872L48.7725 57.416C49.2205 57.0747 49.7592 56.8133 50.3885 56.632C51.0178 56.4507 51.6845 56.36 52.3885 56.36ZM52.1165 63.656C52.6178 63.656 53.0605 63.544 53.4445 63.32C53.8392 63.0853 54.1165 62.7547 54.2765 62.328V61.336H52.2125C51.0605 61.336 50.4845 61.7147 50.4845 62.472C50.4845 62.8347 50.6285 63.1227 50.9165 63.336C51.2045 63.5493 51.6045 63.656 52.1165 63.656ZM62.3153 54.632C61.4726 54.632 61.0513 55.0907 61.0513 56.008V56.52H63.4033V58.12H61.1153V65H59.1153V58.12H57.7073V56.52H59.1153V55.976C59.1153 55.0587 59.3819 54.3387 59.9153 53.816C60.4486 53.2827 61.2006 53.016 62.1713 53.016C62.9393 53.016 63.5419 53.1707 63.9793 53.48L63.4193 54.984C63.0779 54.7493 62.7099 54.632 62.3153 54.632ZM69.8855 64.536C69.6508 64.728 69.3628 64.872 69.0215 64.968C68.6908 65.064 68.3388 65.112 67.9655 65.112C67.0268 65.112 66.3015 64.8667 65.7895 64.376C65.2775 63.8853 65.0215 63.1707 65.0215 62.232V58.12H63.6135V56.52H65.0215V54.568H67.0215V56.52H69.3095V58.12H67.0215V62.184C67.0215 62.6 67.1228 62.92 67.3255 63.144C67.5282 63.3573 67.8215 63.464 68.2055 63.464C68.6535 63.464 69.0268 63.3467 69.3255 63.112L69.8855 64.536ZM83.4726 65L81.1846 61.72C81.0886 61.7307 80.9446 61.736 80.7526 61.736H78.2246V65H76.1446V53.8H80.7526C81.7233 53.8 82.566 53.96 83.2806 54.28C84.006 54.6 84.5606 55.0587 84.9446 55.656C85.3286 56.2533 85.5206 56.9627 85.5206 57.784C85.5206 58.6267 85.3126 59.352 84.8966 59.96C84.4913 60.568 83.9046 61.0213 83.1366 61.32L85.7126 65H83.4726ZM83.4246 57.784C83.4246 57.0693 83.19 56.52 82.7206 56.136C82.2513 55.752 81.5633 55.56 80.6566 55.56H78.2246V60.024H80.6566C81.5633 60.024 82.2513 59.832 82.7206 59.448C83.19 59.0533 83.4246 58.4987 83.4246 57.784ZM95.6878 60.776C95.6878 60.9147 95.6771 61.112 95.6558 61.368H88.9518C89.0691 61.9973 89.3731 62.4987 89.8638 62.872C90.3651 63.2347 90.9838 63.416 91.7198 63.416C92.6584 63.416 93.4318 63.1067 94.0398 62.488L95.1118 63.72C94.7278 64.1787 94.2424 64.5253 93.6558 64.76C93.0691 64.9947 92.4078 65.112 91.6718 65.112C90.7331 65.112 89.9064 64.9253 89.1918 64.552C88.4771 64.1787 87.9224 63.6613 87.5278 63C87.1438 62.328 86.9518 61.5707 86.9518 60.728C86.9518 59.896 87.1384 59.1493 87.5118 58.488C87.8958 57.816 88.4238 57.2933 89.0958 56.92C89.7678 56.5467 90.5251 56.36 91.3678 56.36C92.1998 56.36 92.9411 56.5467 93.5918 56.92C94.2531 57.2827 94.7651 57.8 95.1278 58.472C95.5011 59.1333 95.6878 59.9013 95.6878 60.776ZM91.3678 57.96C90.7278 57.96 90.1838 58.152 89.7358 58.536C89.2984 58.9093 89.0318 59.4107 88.9358 60.04H93.7838C93.6984 59.4213 93.4371 58.92 92.9998 58.536C92.5624 58.152 92.0184 57.96 91.3678 57.96ZM105.453 56.456L101.789 65H99.7246L96.0606 56.456H98.1406L100.797 62.792L103.533 56.456H105.453ZM106.703 56.456H108.703V65H106.703V56.456ZM107.711 55.048C107.348 55.048 107.044 54.936 106.799 54.712C106.553 54.4773 106.431 54.1893 106.431 53.848C106.431 53.5067 106.553 53.224 106.799 53C107.044 52.7653 107.348 52.648 107.711 52.648C108.073 52.648 108.377 52.76 108.623 52.984C108.868 53.1973 108.991 53.4693 108.991 53.8C108.991 54.152 108.868 54.4507 108.623 54.696C108.388 54.9307 108.084 55.048 107.711 55.048ZM113.968 65.112C113.274 65.112 112.597 65.0213 111.936 64.84C111.274 64.6587 110.746 64.4293 110.352 64.152L111.12 62.632C111.504 62.888 111.962 63.096 112.496 63.256C113.04 63.4053 113.573 63.48 114.096 63.48C115.29 63.48 115.888 63.1653 115.888 62.536C115.888 62.2373 115.733 62.0293 115.424 61.912C115.125 61.7947 114.64 61.6827 113.968 61.576C113.264 61.4693 112.688 61.3467 112.24 61.208C111.802 61.0693 111.418 60.8293 111.088 60.488C110.768 60.136 110.608 59.6507 110.608 59.032C110.608 58.2213 110.944 57.576 111.616 57.096C112.298 56.6053 113.216 56.36 114.368 56.36C114.954 56.36 115.541 56.4293 116.128 56.568C116.714 56.696 117.194 56.872 117.568 57.096L116.8 58.616C116.074 58.1893 115.258 57.976 114.352 57.976C113.765 57.976 113.317 58.0667 113.008 58.248C112.709 58.4187 112.56 58.648 112.56 58.936C112.56 59.256 112.72 59.4853 113.04 59.624C113.37 59.752 113.877 59.8747 114.56 59.992C115.242 60.0987 115.802 60.2213 116.24 60.36C116.677 60.4987 117.05 60.7333 117.36 61.064C117.68 61.3947 117.84 61.864 117.84 62.472C117.84 63.272 117.493 63.912 116.8 64.392C116.106 64.872 115.162 65.112 113.968 65.112ZM119.562 56.456H121.562V65H119.562V56.456ZM120.57 55.048C120.207 55.048 119.903 54.936 119.658 54.712C119.413 54.4773 119.29 54.1893 119.29 53.848C119.29 53.5067 119.413 53.224 119.658 53C119.903 52.7653 120.207 52.648 120.57 52.648C120.933 52.648 121.237 52.76 121.482 52.984C121.727 53.1973 121.85 53.4693 121.85 53.8C121.85 54.152 121.727 54.4507 121.482 54.696C121.247 54.9307 120.943 55.048 120.57 55.048ZM128.027 65.112C127.163 65.112 126.384 64.9253 125.691 64.552C124.998 64.1787 124.454 63.6613 124.059 63C123.675 62.328 123.483 61.5707 123.483 60.728C123.483 59.8853 123.675 59.1333 124.059 58.472C124.454 57.8107 124.998 57.2933 125.691 56.92C126.384 56.5467 127.163 56.36 128.027 56.36C128.902 56.36 129.686 56.5467 130.379 56.92C131.072 57.2933 131.611 57.8107 131.995 58.472C132.39 59.1333 132.587 59.8853 132.587 60.728C132.587 61.5707 132.39 62.328 131.995 63C131.611 63.6613 131.072 64.1787 130.379 64.552C129.686 64.9253 128.902 65.112 128.027 65.112ZM128.027 63.4C128.763 63.4 129.371 63.1547 129.851 62.664C130.331 62.1733 130.571 61.528 130.571 60.728C130.571 59.928 130.331 59.2827 129.851 58.792C129.371 58.3013 128.763 58.056 128.027 58.056C127.291 58.056 126.683 58.3013 126.203 58.792C125.734 59.2827 125.499 59.928 125.499 60.728C125.499 61.528 125.734 62.1733 126.203 62.664C126.683 63.1547 127.291 63.4 128.027 63.4ZM139.348 56.36C140.425 56.36 141.289 56.6747 141.94 57.304C142.59 57.9333 142.916 58.8667 142.916 60.104V65H140.916V60.36C140.916 59.6133 140.74 59.0533 140.388 58.68C140.036 58.296 139.534 58.104 138.884 58.104C138.148 58.104 137.566 58.328 137.14 58.776C136.713 59.2133 136.5 59.848 136.5 60.68V65H134.5V56.456H136.404V57.56C136.734 57.1653 137.15 56.8667 137.652 56.664C138.153 56.4613 138.718 56.36 139.348 56.36ZM155.251 65.16C154.12 65.16 153.096 64.9147 152.179 64.424C151.272 63.9227 150.557 63.2347 150.035 62.36C149.523 61.4853 149.267 60.4987 149.267 59.4C149.267 58.3013 149.528 57.3147 150.051 56.44C150.573 55.5653 151.288 54.8827 152.195 54.392C153.112 53.8907 154.136 53.64 155.267 53.64C156.184 53.64 157.021 53.8 157.779 54.12C158.536 54.44 159.176 54.904 159.699 55.512L158.355 56.776C157.544 55.9013 156.547 55.464 155.363 55.464C154.595 55.464 153.907 55.6347 153.299 55.976C152.691 56.3067 152.216 56.7707 151.875 57.368C151.533 57.9653 151.363 58.6427 151.363 59.4C151.363 60.1573 151.533 60.8347 151.875 61.432C152.216 62.0293 152.691 62.4987 153.299 62.84C153.907 63.1707 154.595 63.336 155.363 63.336C156.547 63.336 157.544 62.8933 158.355 62.008L159.699 63.288C159.176 63.896 158.531 64.36 157.763 64.68C157.005 65 156.168 65.16 155.251 65.16ZM164.685 56.36C165.944 56.36 166.904 56.664 167.565 57.272C168.237 57.8693 168.573 58.776 168.573 59.992V65H166.685V63.96C166.44 64.3333 166.088 64.6213 165.629 64.824C165.181 65.016 164.637 65.112 163.997 65.112C163.357 65.112 162.797 65.0053 162.317 64.792C161.837 64.568 161.464 64.264 161.197 63.88C160.941 63.4853 160.813 63.0427 160.813 62.552C160.813 61.784 161.096 61.1707 161.661 60.712C162.237 60.2427 163.139 60.008 164.365 60.008H166.573V59.88C166.573 59.2827 166.392 58.824 166.029 58.504C165.677 58.184 165.149 58.024 164.445 58.024C163.965 58.024 163.491 58.0987 163.021 58.248C162.563 58.3973 162.173 58.6053 161.853 58.872L161.069 57.416C161.517 57.0747 162.056 56.8133 162.685 56.632C163.315 56.4507 163.981 56.36 164.685 56.36ZM164.413 63.656C164.915 63.656 165.357 63.544 165.741 63.32C166.136 63.0853 166.413 62.7547 166.573 62.328V61.336H164.509C163.357 61.336 162.781 61.7147 162.781 62.472C162.781 62.8347 162.925 63.1227 163.213 63.336C163.501 63.5493 163.901 63.656 164.413 63.656ZM171.14 53.128H173.14V65H171.14V53.128ZM175.765 53.128H177.765V65H175.765V53.128Z" fill="#444444"/>
<path d="M29.368 36.6H30.256V44.232H34.96V45H29.368V36.6ZM41.8487 38.688V45H41.0327V43.848C40.8087 44.232 40.5007 44.532 40.1087 44.748C39.7167 44.956 39.2687 45.06 38.7647 45.06C37.9407 45.06 37.2887 44.832 36.8087 44.376C36.3367 43.912 36.1007 43.236 36.1007 42.348V38.688H36.9527V42.264C36.9527 42.928 37.1167 43.432 37.4447 43.776C37.7727 44.12 38.2407 44.292 38.8487 44.292C39.5127 44.292 40.0367 44.092 40.4207 43.692C40.8047 43.284 40.9967 42.72 40.9967 42V38.688H41.8487ZM46.8509 45.06C46.2269 45.06 45.6669 44.924 45.1709 44.652C44.6829 44.38 44.2989 44 44.0189 43.512C43.7389 43.016 43.5989 42.46 43.5989 41.844C43.5989 41.228 43.7389 40.676 44.0189 40.188C44.2989 39.7 44.6829 39.32 45.1709 39.048C45.6669 38.776 46.2269 38.64 46.8509 38.64C47.3949 38.64 47.8789 38.748 48.3029 38.964C48.7349 39.172 49.0749 39.48 49.3229 39.888L48.6869 40.32C48.4789 40.008 48.2149 39.776 47.8949 39.624C47.5749 39.464 47.2269 39.384 46.8509 39.384C46.3949 39.384 45.9829 39.488 45.6149 39.696C45.2549 39.896 44.9709 40.184 44.7629 40.56C44.5629 40.936 44.4629 41.364 44.4629 41.844C44.4629 42.332 44.5629 42.764 44.7629 43.14C44.9709 43.508 45.2549 43.796 45.6149 44.004C45.9829 44.204 46.3949 44.304 46.8509 44.304C47.2269 44.304 47.5749 44.228 47.8949 44.076C48.2149 43.924 48.4789 43.692 48.6869 43.38L49.3229 43.812C49.0749 44.22 48.7349 44.532 48.3029 44.748C47.8709 44.956 47.3869 45.06 46.8509 45.06ZM53.2046 38.64C54.0286 38.64 54.6606 38.848 55.1006 39.264C55.5406 39.672 55.7606 40.28 55.7606 41.088V45H54.9446V44.016C54.7526 44.344 54.4686 44.6 54.0926 44.784C53.7246 44.968 53.2846 45.06 52.7726 45.06C52.0686 45.06 51.5086 44.892 51.0926 44.556C50.6766 44.22 50.4686 43.776 50.4686 43.224C50.4686 42.688 50.6606 42.256 51.0446 41.928C51.4366 41.6 52.0566 41.436 52.9046 41.436H54.9086V41.052C54.9086 40.508 54.7566 40.096 54.4526 39.816C54.1486 39.528 53.7046 39.384 53.1206 39.384C52.7206 39.384 52.3366 39.452 51.9686 39.588C51.6006 39.716 51.2846 39.896 51.0206 40.128L50.6366 39.492C50.9566 39.22 51.3406 39.012 51.7886 38.868C52.2366 38.716 52.7086 38.64 53.2046 38.64ZM52.9046 44.388C53.3846 44.388 53.7966 44.28 54.1406 44.064C54.4846 43.84 54.7406 43.52 54.9086 43.104V42.072H52.9286C51.8486 42.072 51.3086 42.448 51.3086 43.2C51.3086 43.568 51.4486 43.86 51.7286 44.076C52.0086 44.284 52.4006 44.388 52.9046 44.388ZM59.7667 45.06C59.2547 45.06 58.7627 44.988 58.2907 44.844C57.8267 44.692 57.4627 44.504 57.1987 44.28L57.5827 43.608C57.8467 43.816 58.1787 43.988 58.5787 44.124C58.9787 44.252 59.3947 44.316 59.8267 44.316C60.4027 44.316 60.8267 44.228 61.0987 44.052C61.3787 43.868 61.5187 43.612 61.5187 43.284C61.5187 43.052 61.4427 42.872 61.2907 42.744C61.1387 42.608 60.9467 42.508 60.7147 42.444C60.4827 42.372 60.1747 42.304 59.7907 42.24C59.2787 42.144 58.8667 42.048 58.5547 41.952C58.2427 41.848 57.9747 41.676 57.7507 41.436C57.5347 41.196 57.4267 40.864 57.4267 40.44C57.4267 39.912 57.6467 39.48 58.0867 39.144C58.5267 38.808 59.1387 38.64 59.9227 38.64C60.3307 38.64 60.7387 38.696 61.1467 38.808C61.5547 38.912 61.8907 39.052 62.1547 39.228L61.7827 39.912C61.2627 39.552 60.6427 39.372 59.9227 39.372C59.3787 39.372 58.9667 39.468 58.6867 39.66C58.4147 39.852 58.2787 40.104 58.2787 40.416C58.2787 40.656 58.3547 40.848 58.5067 40.992C58.6667 41.136 58.8627 41.244 59.0947 41.316C59.3267 41.38 59.6467 41.448 60.0547 41.52C60.5587 41.616 60.9627 41.712 61.2667 41.808C61.5707 41.904 61.8307 42.068 62.0467 42.3C62.2627 42.532 62.3707 42.852 62.3707 43.26C62.3707 43.812 62.1387 44.252 61.6747 44.58C61.2187 44.9 60.5827 45.06 59.7667 45.06ZM69.5824 45.072C68.9584 45.072 68.3584 44.972 67.7824 44.772C67.2144 44.572 66.7744 44.308 66.4624 43.98L66.8104 43.296C67.1144 43.6 67.5184 43.848 68.0224 44.04C68.5264 44.224 69.0464 44.316 69.5824 44.316C70.3344 44.316 70.8984 44.18 71.2744 43.908C71.6504 43.628 71.8384 43.268 71.8384 42.828C71.8384 42.492 71.7344 42.224 71.5264 42.024C71.3264 41.824 71.0784 41.672 70.7824 41.568C70.4864 41.456 70.0744 41.336 69.5464 41.208C68.9144 41.048 68.4104 40.896 68.0344 40.752C67.6584 40.6 67.3344 40.372 67.0624 40.068C66.7984 39.764 66.6664 39.352 66.6664 38.832C66.6664 38.408 66.7784 38.024 67.0024 37.68C67.2264 37.328 67.5704 37.048 68.0344 36.84C68.4984 36.632 69.0744 36.528 69.7624 36.528C70.2424 36.528 70.7104 36.596 71.1664 36.732C71.6304 36.86 72.0304 37.04 72.3664 37.272L72.0664 37.98C71.7144 37.748 71.3384 37.576 70.9384 37.464C70.5384 37.344 70.1464 37.284 69.7624 37.284C69.0264 37.284 68.4704 37.428 68.0944 37.716C67.7264 37.996 67.5424 38.36 67.5424 38.808C67.5424 39.144 67.6424 39.416 67.8424 39.624C68.0504 39.824 68.3064 39.98 68.6104 40.092C68.9224 40.196 69.3384 40.312 69.8584 40.44C70.4744 40.592 70.9704 40.744 71.3464 40.896C71.7304 41.04 72.0544 41.264 72.3184 41.568C72.5824 41.864 72.7144 42.268 72.7144 42.78C72.7144 43.204 72.5984 43.592 72.3664 43.944C72.1424 44.288 71.7944 44.564 71.3224 44.772C70.8504 44.972 70.2704 45.072 69.5824 45.072ZM82.3413 38.64C83.1333 38.64 83.7533 38.868 84.2013 39.324C84.6573 39.78 84.8853 40.452 84.8853 41.34V45H84.0333V41.424C84.0333 40.768 83.8733 40.268 83.5533 39.924C83.2413 39.58 82.7973 39.408 82.2213 39.408C81.5653 39.408 81.0493 39.612 80.6733 40.02C80.2973 40.42 80.1093 40.976 80.1093 41.688V45H79.2573V41.424C79.2573 40.768 79.0973 40.268 78.7773 39.924C78.4653 39.58 78.0173 39.408 77.4333 39.408C76.7853 39.408 76.2693 39.612 75.8853 40.02C75.5093 40.42 75.3213 40.976 75.3213 41.688V45H74.4693V38.688H75.2853V39.84C75.5093 39.456 75.8213 39.16 76.2213 38.952C76.6213 38.744 77.0813 38.64 77.6013 38.64C78.1293 38.64 78.5853 38.752 78.9693 38.976C79.3613 39.2 79.6533 39.532 79.8453 39.972C80.0773 39.556 80.4093 39.232 80.8413 39C81.2813 38.76 81.7813 38.64 82.3413 38.64ZM89.4038 38.64C90.2278 38.64 90.8598 38.848 91.2998 39.264C91.7398 39.672 91.9598 40.28 91.9598 41.088V45H91.1438V44.016C90.9518 44.344 90.6678 44.6 90.2918 44.784C89.9238 44.968 89.4838 45.06 88.9718 45.06C88.2678 45.06 87.7078 44.892 87.2918 44.556C86.8758 44.22 86.6678 43.776 86.6678 43.224C86.6678 42.688 86.8598 42.256 87.2438 41.928C87.6358 41.6 88.2558 41.436 89.1038 41.436H91.1078V41.052C91.1078 40.508 90.9558 40.096 90.6518 39.816C90.3478 39.528 89.9038 39.384 89.3198 39.384C88.9198 39.384 88.5358 39.452 88.1678 39.588C87.7998 39.716 87.4838 39.896 87.2198 40.128L86.8358 39.492C87.1558 39.22 87.5398 39.012 87.9878 38.868C88.4358 38.716 88.9078 38.64 89.4038 38.64ZM89.1038 44.388C89.5838 44.388 89.9958 44.28 90.3398 44.064C90.6838 43.84 90.9398 43.52 91.1078 43.104V42.072H89.1278C88.0478 42.072 87.5078 42.448 87.5078 43.2C87.5078 43.568 87.6478 43.86 87.9278 44.076C88.2078 44.284 88.5998 44.388 89.1038 44.388ZM95.0899 39.924C95.2899 39.5 95.5859 39.18 95.9779 38.964C96.3779 38.748 96.8699 38.64 97.4539 38.64V39.468L97.2499 39.456C96.5859 39.456 96.0659 39.66 95.6899 40.068C95.3139 40.476 95.1259 41.048 95.1259 41.784V45H94.2739V38.688H95.0899V39.924ZM102.59 44.616C102.43 44.76 102.23 44.872 101.99 44.952C101.758 45.024 101.514 45.06 101.258 45.06C100.666 45.06 100.21 44.9 99.8901 44.58C99.5701 44.26 99.4101 43.808 99.4101 43.224V39.408H98.2821V38.688H99.4101V37.308H100.262V38.688H102.182V39.408H100.262V43.176C100.262 43.552 100.354 43.84 100.538 44.04C100.73 44.232 101.002 44.328 101.354 44.328C101.53 44.328 101.698 44.3 101.858 44.244C102.026 44.188 102.17 44.108 102.29 44.004L102.59 44.616Z" fill="#818181"/>
<path d="M38 78L40.0206 84.2188H46.5595L41.2694 88.0623L43.2901 94.2812L38 90.4377L32.7099 94.2812L34.7306 88.0623L29.4405 84.2188H35.9794L38 78Z" fill="#EFD445"/>
<path d="M59 78L61.0206 84.2188H67.5595L62.2694 88.0623L64.2901 94.2812L59 90.4377L53.7099 94.2812L55.7306 88.0623L50.4405 84.2188H56.9794L59 78Z" fill="#EFD445"/>
<path d="M80 78L82.0206 84.2188H88.5595L83.2694 88.0623L85.2901 94.2812L80 90.4377L74.7099 94.2812L76.7306 88.0623L71.4405 84.2188H77.9794L80 78Z" fill="#EFD445"/>
<path d="M101 78L103.021 84.2188H109.56L104.269 88.0623L106.29 94.2812L101 90.4377L95.7099 94.2812L97.7306 88.0623L92.4405 84.2188H98.9794L101 78Z" fill="#EFD445"/>
<path d="M122 78L124.021 84.2188H130.56L125.269 88.0623L127.29 94.2812L122 90.4377L116.71 94.2812L118.731 88.0623L113.44 84.2188H119.979L122 78Z" fill="#818181"/>
<circle cx="222" cy="31" r="10" fill="#409CCF"/>
<path d="M221.999 36.8333C219.116 36.7953 216.787 34.4669 216.749 31.5833C216.787 28.6997 219.116 26.3713 221.999 26.3333C224.883 26.3713 227.211 28.6997 227.249 31.5833C227.211 34.4669 224.883 36.7953 221.999 36.8333ZM221.999 27.5C219.757 27.5295 217.946 29.3405 217.916 31.5833C217.946 33.8262 219.757 35.6371 221.999 35.6667C224.242 35.6371 226.053 33.8262 226.083 31.5833C226.053 29.3405 224.242 27.5295 221.999 27.5ZM224.916 32.1667H221.416V28.6667H222.583V31H224.916V32.1667ZM226.836 27.913L225.081 26.163L225.903 25.3364L227.659 27.0864L226.836 27.9124V27.913ZM217.162 27.913L216.336 27.0864L218.081 25.3364L218.907 26.163L217.163 27.913H217.162Z" fill="white"/>
<defs>
<filter id="filter0_d_13_387" x="0" y="0" width="261" height="133" filterUnits="userSpaceOnUse" color-interpolation-filters="sRGB">
<feFlood flood-opacity="0" result="BackgroundImageFix"/>
<feColorMatrix in="SourceAlpha" type="matrix" values="0 0 0 0 0 0 0 0 0 0 0 0 0 0 0 0 0 0 127 0" result="hardAlpha"/>
<feOffset dy="2"/>
<feGaussianBlur stdDeviation="7.5"/>
<feComposite in2="hardAlpha" operator="out"/>
<feColorMatrix type="matrix" values="0 0 0 0 0 0 0 0 0 0 0 0 0 0 0 0 0 0 0.1 0"/>
<feBlend mode="normal" in2="BackgroundImageFix" result="effect1_dropShadow_13_387"/>
<feBlend mode="normal" in="SourceGraphic" in2="effect1_dropShadow_13_387" result="shape"/>
</filter>
</defs>
</svg>
