<svg width="261" height="177" viewBox="0 0 261 177" fill="none" xmlns="http://www.w3.org/2000/svg">
<g filter="url(#filter0_d_13_409)">
<rect x="15" y="13" width="231" height="103" rx="10" fill="white"/>
</g>
<path d="M32.976 65.16C32.112 65.16 31.2747 65.0373 30.464 64.792C29.664 64.5467 29.0293 64.2213 28.56 63.816L29.28 62.2C29.7387 62.5627 30.2987 62.8613 30.96 63.096C31.632 63.32 32.304 63.432 32.976 63.432C33.808 63.432 34.4267 63.2987 34.832 63.032C35.248 62.7653 35.456 62.4133 35.456 61.976C35.456 61.656 35.3387 61.3947 35.104 61.192C34.88 60.9787 34.592 60.8133 34.24 60.696C33.888 60.5787 33.408 60.4453 32.8 60.296C31.9467 60.0933 31.2533 59.8907 30.72 59.688C30.1973 59.4853 29.744 59.1707 29.36 58.744C28.9867 58.3067 28.8 57.72 28.8 56.984C28.8 56.3653 28.9653 55.8053 29.296 55.304C29.6373 54.792 30.144 54.3867 30.816 54.088C31.4987 53.7893 32.3307 53.64 33.312 53.64C33.9947 53.64 34.6667 53.7253 35.328 53.896C35.9893 54.0667 36.56 54.312 37.04 54.632L36.384 56.248C35.8933 55.96 35.3813 55.7413 34.848 55.592C34.3147 55.4427 33.7973 55.368 33.296 55.368C32.4747 55.368 31.8613 55.5067 31.456 55.784C31.0613 56.0613 30.864 56.4293 30.864 56.888C30.864 57.208 30.976 57.4693 31.2 57.672C31.4347 57.8747 31.728 58.0347 32.08 58.152C32.432 58.2693 32.912 58.4027 33.52 58.552C34.352 58.744 35.0347 58.9467 35.568 59.16C36.1013 59.3627 36.5547 59.6773 36.928 60.104C37.312 60.5307 37.504 61.1067 37.504 61.832C37.504 62.4507 37.3333 63.0107 36.992 63.512C36.6613 64.0133 36.1547 64.4133 35.472 64.712C34.7893 65.0107 33.9573 65.16 32.976 65.16ZM44.5105 64.536C44.2758 64.728 43.9878 64.872 43.6465 64.968C43.3158 65.064 42.9638 65.112 42.5905 65.112C41.6518 65.112 40.9265 64.8667 40.4145 64.376C39.9025 63.8853 39.6465 63.1707 39.6465 62.232V58.12H38.2385V56.52H39.6465V54.568H41.6465V56.52H43.9345V58.12H41.6465V62.184C41.6465 62.6 41.7478 62.92 41.9505 63.144C42.1532 63.3573 42.4465 63.464 42.8305 63.464C43.2785 63.464 43.6518 63.3467 43.9505 63.112L44.5105 64.536ZM49.4198 56.36C50.6784 56.36 51.6384 56.664 52.2998 57.272C52.9718 57.8693 53.3078 58.776 53.3078 59.992V65H51.4198V63.96C51.1744 64.3333 50.8224 64.6213 50.3638 64.824C49.9158 65.016 49.3718 65.112 48.7318 65.112C48.0918 65.112 47.5318 65.0053 47.0518 64.792C46.5718 64.568 46.1984 64.264 45.9318 63.88C45.6758 63.4853 45.5478 63.0427 45.5478 62.552C45.5478 61.784 45.8304 61.1707 46.3958 60.712C46.9718 60.2427 47.8731 60.008 49.0998 60.008H51.3078V59.88C51.3078 59.2827 51.1264 58.824 50.7638 58.504C50.4118 58.184 49.8838 58.024 49.1798 58.024C48.6998 58.024 48.2251 58.0987 47.7558 58.248C47.2971 58.3973 46.9078 58.6053 46.5878 58.872L45.8038 57.416C46.2518 57.0747 46.7904 56.8133 47.4198 56.632C48.0491 56.4507 48.7158 56.36 49.4198 56.36ZM49.1478 63.656C49.6491 63.656 50.0918 63.544 50.4758 63.32C50.8704 63.0853 51.1478 62.7547 51.3078 62.328V61.336H49.2438C48.0918 61.336 47.5158 61.7147 47.5158 62.472C47.5158 62.8347 47.6598 63.1227 47.9478 63.336C48.2358 63.5493 48.6358 63.656 49.1478 63.656ZM60.7225 56.36C61.7998 56.36 62.6638 56.6747 63.3145 57.304C63.9652 57.9333 64.2905 58.8667 64.2905 60.104V65H62.2905V60.36C62.2905 59.6133 62.1145 59.0533 61.7625 58.68C61.4105 58.296 60.9092 58.104 60.2585 58.104C59.5225 58.104 58.9412 58.328 58.5145 58.776C58.0878 59.2133 57.8745 59.848 57.8745 60.68V65H55.8745V56.456H57.7785V57.56C58.1092 57.1653 58.5252 56.8667 59.0265 56.664C59.5278 56.4613 60.0932 56.36 60.7225 56.36ZM75.2738 53.128V65H73.3538V63.896C73.0231 64.3013 72.6124 64.6053 72.1218 64.808C71.6418 65.0107 71.1084 65.112 70.5218 65.112C69.7004 65.112 68.9591 64.9307 68.2978 64.568C67.6471 64.2053 67.1351 63.6933 66.7618 63.032C66.3884 62.36 66.2018 61.592 66.2018 60.728C66.2018 59.864 66.3884 59.1013 66.7618 58.44C67.1351 57.7787 67.6471 57.2667 68.2978 56.904C68.9591 56.5413 69.7004 56.36 70.5218 56.36C71.0871 56.36 71.6044 56.456 72.0738 56.648C72.5431 56.84 72.9431 57.128 73.2738 57.512V53.128H75.2738ZM70.7618 63.4C71.2418 63.4 71.6738 63.2933 72.0578 63.08C72.4418 62.856 72.7458 62.5413 72.9698 62.136C73.1938 61.7307 73.3058 61.2613 73.3058 60.728C73.3058 60.1947 73.1938 59.7253 72.9698 59.32C72.7458 58.9147 72.4418 58.6053 72.0578 58.392C71.6738 58.168 71.2418 58.056 70.7618 58.056C70.2818 58.056 69.8498 58.168 69.4658 58.392C69.0818 58.6053 68.7778 58.9147 68.5538 59.32C68.3298 59.7253 68.2178 60.1947 68.2178 60.728C68.2178 61.2613 68.3298 61.7307 68.5538 62.136C68.7778 62.5413 69.0818 62.856 69.4658 63.08C69.8498 63.2933 70.2818 63.4 70.7618 63.4ZM87.32 65.16C85.7733 65.16 84.568 64.728 83.704 63.864C82.84 62.9893 82.408 61.7413 82.408 60.12V53.8H84.488V60.04C84.488 62.2373 85.4373 63.336 87.336 63.336C89.224 63.336 90.168 62.2373 90.168 60.04V53.8H92.216V60.12C92.216 61.7413 91.784 62.9893 90.92 63.864C90.0667 64.728 88.8667 65.16 87.32 65.16ZM99.673 56.36C100.505 56.36 101.246 56.5413 101.897 56.904C102.558 57.2667 103.076 57.7787 103.449 58.44C103.822 59.1013 104.009 59.864 104.009 60.728C104.009 61.592 103.822 62.36 103.449 63.032C103.076 63.6933 102.558 64.2053 101.897 64.568C101.246 64.9307 100.505 65.112 99.673 65.112C98.521 65.112 97.609 64.728 96.937 63.96V68.104H94.937V56.456H96.841V57.576C97.1717 57.1707 97.577 56.8667 98.057 56.664C98.5477 56.4613 99.0863 56.36 99.673 56.36ZM99.449 63.4C100.185 63.4 100.788 63.1547 101.257 62.664C101.737 62.1733 101.977 61.528 101.977 60.728C101.977 59.928 101.737 59.2827 101.257 58.792C100.788 58.3013 100.185 58.056 99.449 58.056C98.969 58.056 98.537 58.168 98.153 58.392C97.769 58.6053 97.465 58.9147 97.241 59.32C97.017 59.7253 96.905 60.1947 96.905 60.728C96.905 61.2613 97.017 61.7307 97.241 62.136C97.465 62.5413 97.769 62.856 98.153 63.08C98.537 63.2933 98.969 63.4 99.449 63.4ZM120.808 65L120.792 57.576L117.112 63.72H116.184L112.504 57.672V65H110.52V53.8H112.232L116.68 61.224L121.048 53.8H122.76L122.776 65H120.808ZM133.641 60.776C133.641 60.9147 133.63 61.112 133.609 61.368H126.905C127.022 61.9973 127.326 62.4987 127.817 62.872C128.318 63.2347 128.937 63.416 129.673 63.416C130.612 63.416 131.385 63.1067 131.993 62.488L133.065 63.72C132.681 64.1787 132.196 64.5253 131.609 64.76C131.022 64.9947 130.361 65.112 129.625 65.112C128.686 65.112 127.86 64.9253 127.145 64.552C126.43 64.1787 125.876 63.6613 125.481 63C125.097 62.328 124.905 61.5707 124.905 60.728C124.905 59.896 125.092 59.1493 125.465 58.488C125.849 57.816 126.377 57.2933 127.049 56.92C127.721 56.5467 128.478 56.36 129.321 56.36C130.153 56.36 130.894 56.5467 131.545 56.92C132.206 57.2827 132.718 57.8 133.081 58.472C133.454 59.1333 133.641 59.9013 133.641 60.776ZM129.321 57.96C128.681 57.96 128.137 58.152 127.689 58.536C127.252 58.9093 126.985 59.4107 126.889 60.04H131.737C131.652 59.4213 131.39 58.92 130.953 58.536C130.516 58.152 129.972 57.96 129.321 57.96ZM143.594 60.776C143.594 60.9147 143.583 61.112 143.562 61.368H136.858C136.975 61.9973 137.279 62.4987 137.77 62.872C138.271 63.2347 138.89 63.416 139.626 63.416C140.565 63.416 141.338 63.1067 141.946 62.488L143.018 63.72C142.634 64.1787 142.149 64.5253 141.562 64.76C140.975 64.9947 140.314 65.112 139.578 65.112C138.639 65.112 137.813 64.9253 137.098 64.552C136.383 64.1787 135.829 63.6613 135.434 63C135.05 62.328 134.858 61.5707 134.858 60.728C134.858 59.896 135.045 59.1493 135.418 58.488C135.802 57.816 136.33 57.2933 137.002 56.92C137.674 56.5467 138.431 56.36 139.274 56.36C140.106 56.36 140.847 56.5467 141.498 56.92C142.159 57.2827 142.671 57.8 143.034 58.472C143.407 59.1333 143.594 59.9013 143.594 60.776ZM139.274 57.96C138.634 57.96 138.09 58.152 137.642 58.536C137.205 58.9093 136.938 59.4107 136.842 60.04H141.69C141.605 59.4213 141.343 58.92 140.906 58.536C140.469 58.152 139.925 57.96 139.274 57.96ZM150.651 64.536C150.416 64.728 150.128 64.872 149.787 64.968C149.456 65.064 149.104 65.112 148.731 65.112C147.792 65.112 147.067 64.8667 146.555 64.376C146.043 63.8853 145.787 63.1707 145.787 62.232V58.12H144.379V56.52H145.787V54.568H147.787V56.52H150.075V58.12H147.787V62.184C147.787 62.6 147.888 62.92 148.091 63.144C148.294 63.3573 148.587 63.464 148.971 63.464C149.419 63.464 149.792 63.3467 150.091 63.112L150.651 64.536ZM152.296 56.456H154.296V65H152.296V56.456ZM153.304 55.048C152.942 55.048 152.638 54.936 152.392 54.712C152.147 54.4773 152.024 54.1893 152.024 53.848C152.024 53.5067 152.147 53.224 152.392 53C152.638 52.7653 152.942 52.648 153.304 52.648C153.667 52.648 153.971 52.76 154.216 52.984C154.462 53.1973 154.584 53.4693 154.584 53.8C154.584 54.152 154.462 54.4507 154.216 54.696C153.982 54.9307 153.678 55.048 153.304 55.048ZM161.769 56.36C162.847 56.36 163.711 56.6747 164.361 57.304C165.012 57.9333 165.337 58.8667 165.337 60.104V65H163.337V60.36C163.337 59.6133 163.161 59.0533 162.809 58.68C162.457 58.296 161.956 58.104 161.305 58.104C160.569 58.104 159.988 58.328 159.561 58.776C159.135 59.2133 158.921 59.848 158.921 60.68V65H156.921V56.456H158.825V57.56C159.156 57.1653 159.572 56.8667 160.073 56.664C160.575 56.4613 161.14 56.36 161.769 56.36ZM176.433 56.456V63.704C176.433 66.712 174.897 68.216 171.825 68.216C171.003 68.216 170.225 68.1093 169.489 67.896C168.753 67.6933 168.145 67.3947 167.665 67L168.561 65.496C168.934 65.8053 169.403 66.0507 169.969 66.232C170.545 66.424 171.126 66.52 171.713 66.52C172.651 66.52 173.339 66.3067 173.777 65.88C174.214 65.4533 174.433 64.8027 174.433 63.928V63.48C174.091 63.8533 173.675 64.136 173.185 64.328C172.694 64.52 172.155 64.616 171.569 64.616C170.758 64.616 170.022 64.4453 169.361 64.104C168.71 63.752 168.193 63.2613 167.809 62.632C167.435 62.0027 167.249 61.2827 167.249 60.472C167.249 59.6613 167.435 58.9467 167.809 58.328C168.193 57.6987 168.71 57.2133 169.361 56.872C170.022 56.5307 170.758 56.36 171.569 56.36C172.187 56.36 172.747 56.4613 173.249 56.664C173.761 56.8667 174.187 57.176 174.529 57.592V56.456H176.433ZM171.873 62.92C172.63 62.92 173.249 62.696 173.729 62.248C174.219 61.7893 174.465 61.1973 174.465 60.472C174.465 59.7573 174.219 59.176 173.729 58.728C173.249 58.28 172.63 58.056 171.873 58.056C171.105 58.056 170.475 58.28 169.985 58.728C169.505 59.176 169.265 59.7573 169.265 60.472C169.265 61.1973 169.505 61.7893 169.985 62.248C170.475 62.696 171.105 62.92 171.873 62.92Z" fill="#444444"/>
<path d="M35.284 40.8H36.136V44.004C35.744 44.348 35.28 44.612 34.744 44.796C34.208 44.98 33.644 45.072 33.052 45.072C32.212 45.072 31.456 44.888 30.784 44.52C30.112 44.152 29.584 43.644 29.2 42.996C28.816 42.34 28.624 41.608 28.624 40.8C28.624 39.992 28.816 39.264 29.2 38.616C29.584 37.96 30.112 37.448 30.784 37.08C31.456 36.712 32.216 36.528 33.064 36.528C33.704 36.528 34.292 36.632 34.828 36.84C35.364 37.04 35.816 37.34 36.184 37.74L35.632 38.304C34.968 37.648 34.124 37.32 33.1 37.32C32.42 37.32 31.804 37.472 31.252 37.776C30.708 38.072 30.28 38.488 29.968 39.024C29.656 39.552 29.5 40.144 29.5 40.8C29.5 41.456 29.656 42.048 29.968 42.576C30.28 43.104 30.708 43.52 31.252 43.824C31.796 44.128 32.408 44.28 33.088 44.28C33.952 44.28 34.684 44.064 35.284 43.632V40.8ZM38.4693 38.688H39.3213V45H38.4693V38.688ZM38.9013 37.308C38.7253 37.308 38.5773 37.248 38.4573 37.128C38.3373 37.008 38.2773 36.864 38.2773 36.696C38.2773 36.536 38.3373 36.396 38.4573 36.276C38.5773 36.156 38.7253 36.096 38.9013 36.096C39.0773 36.096 39.2253 36.156 39.3453 36.276C39.4653 36.388 39.5253 36.524 39.5253 36.684C39.5253 36.86 39.4653 37.008 39.3453 37.128C39.2253 37.248 39.0773 37.308 38.9013 37.308ZM44.9079 38.64C45.6999 38.64 46.3279 38.872 46.7919 39.336C47.2639 39.792 47.4999 40.46 47.4999 41.34V45H46.6479V41.424C46.6479 40.768 46.4839 40.268 46.1559 39.924C45.8279 39.58 45.3599 39.408 44.7519 39.408C44.0719 39.408 43.5319 39.612 43.1319 40.02C42.7399 40.42 42.5439 40.976 42.5439 41.688V45H41.6919V38.688H42.5079V39.852C42.7399 39.468 43.0599 39.172 43.4679 38.964C43.8839 38.748 44.3639 38.64 44.9079 38.64ZM52.021 38.64C52.845 38.64 53.477 38.848 53.917 39.264C54.357 39.672 54.577 40.28 54.577 41.088V45H53.761V44.016C53.569 44.344 53.285 44.6 52.909 44.784C52.541 44.968 52.101 45.06 51.589 45.06C50.885 45.06 50.325 44.892 49.909 44.556C49.493 44.22 49.285 43.776 49.285 43.224C49.285 42.688 49.477 42.256 49.861 41.928C50.253 41.6 50.873 41.436 51.721 41.436H53.725V41.052C53.725 40.508 53.573 40.096 53.269 39.816C52.965 39.528 52.521 39.384 51.937 39.384C51.537 39.384 51.153 39.452 50.785 39.588C50.417 39.716 50.101 39.896 49.837 40.128L49.453 39.492C49.773 39.22 50.157 39.012 50.605 38.868C51.053 38.716 51.525 38.64 52.021 38.64ZM51.721 44.388C52.201 44.388 52.613 44.28 52.957 44.064C53.301 43.84 53.557 43.52 53.725 43.104V42.072H51.745C50.665 42.072 50.125 42.448 50.125 43.2C50.125 43.568 50.265 43.86 50.545 44.076C50.825 44.284 51.217 44.388 51.721 44.388ZM65.9478 45L64.0278 42.3C63.8118 42.324 63.5878 42.336 63.3558 42.336H61.0998V45H60.2118V36.6H63.3558C64.4278 36.6 65.2678 36.856 65.8758 37.368C66.4838 37.88 66.7878 38.584 66.7878 39.48C66.7878 40.136 66.6198 40.692 66.2838 41.148C65.9558 41.596 65.4838 41.92 64.8678 42.12L66.9198 45H65.9478ZM63.3318 41.58C64.1638 41.58 64.7998 41.396 65.2398 41.028C65.6798 40.66 65.8997 40.144 65.8997 39.48C65.8997 38.8 65.6798 38.28 65.2398 37.92C64.7998 37.552 64.1638 37.368 63.3318 37.368H61.0998V41.58H63.3318ZM71.2836 45.06C70.6756 45.06 70.1276 44.924 69.6396 44.652C69.1516 44.372 68.7676 43.988 68.4876 43.5C68.2076 43.012 68.0676 42.46 68.0676 41.844C68.0676 41.228 68.2076 40.676 68.4876 40.188C68.7676 39.7 69.1516 39.32 69.6396 39.048C70.1276 38.776 70.6756 38.64 71.2836 38.64C71.8916 38.64 72.4396 38.776 72.9276 39.048C73.4156 39.32 73.7956 39.7 74.0676 40.188C74.3476 40.676 74.4876 41.228 74.4876 41.844C74.4876 42.46 74.3476 43.012 74.0676 43.5C73.7956 43.988 73.4156 44.372 72.9276 44.652C72.4396 44.924 71.8916 45.06 71.2836 45.06ZM71.2836 44.304C71.7316 44.304 72.1316 44.204 72.4836 44.004C72.8436 43.796 73.1236 43.504 73.3236 43.128C73.5236 42.752 73.6236 42.324 73.6236 41.844C73.6236 41.364 73.5236 40.936 73.3236 40.56C73.1236 40.184 72.8436 39.896 72.4836 39.696C72.1316 39.488 71.7316 39.384 71.2836 39.384C70.8356 39.384 70.4316 39.488 70.0716 39.696C69.7196 39.896 69.4396 40.184 69.2316 40.56C69.0316 40.936 68.9316 41.364 68.9316 41.844C68.9316 42.324 69.0316 42.752 69.2316 43.128C69.4396 43.504 69.7196 43.796 70.0716 44.004C70.4316 44.204 70.8356 44.304 71.2836 44.304ZM79.4791 38.64C80.0711 38.64 80.6071 38.776 81.0871 39.048C81.5671 39.312 81.9431 39.688 82.2151 40.176C82.4871 40.664 82.6231 41.22 82.6231 41.844C82.6231 42.468 82.4871 43.024 82.2151 43.512C81.9431 44 81.5671 44.38 81.0871 44.652C80.6071 44.924 80.0711 45.06 79.4791 45.06C78.9511 45.06 78.4751 44.948 78.0511 44.724C77.6351 44.5 77.2991 44.176 77.0431 43.752V45H76.2271V36.096H77.0791V39.888C77.3431 39.48 77.6791 39.172 78.0871 38.964C78.5031 38.748 78.9671 38.64 79.4791 38.64ZM79.4191 44.304C79.8591 44.304 80.2591 44.204 80.6191 44.004C80.9791 43.796 81.2591 43.504 81.4591 43.128C81.6671 42.752 81.7711 42.324 81.7711 41.844C81.7711 41.364 81.6671 40.936 81.4591 40.56C81.2591 40.184 80.9791 39.896 80.6191 39.696C80.2591 39.488 79.8591 39.384 79.4191 39.384C78.9711 39.384 78.5671 39.488 78.2071 39.696C77.8551 39.896 77.5751 40.184 77.3671 40.56C77.1671 40.936 77.0671 41.364 77.0671 41.844C77.0671 42.324 77.1671 42.752 77.3671 43.128C77.5751 43.504 77.8551 43.796 78.2071 44.004C78.5671 44.204 78.9711 44.304 79.4191 44.304ZM89.8559 42.108H84.5759C84.6239 42.764 84.8759 43.296 85.3319 43.704C85.7879 44.104 86.3639 44.304 87.0599 44.304C87.4519 44.304 87.8119 44.236 88.1399 44.1C88.4679 43.956 88.7519 43.748 88.9919 43.476L89.4719 44.028C89.1919 44.364 88.8399 44.62 88.4159 44.796C87.9999 44.972 87.5399 45.06 87.0359 45.06C86.3879 45.06 85.8119 44.924 85.3079 44.652C84.8119 44.372 84.4239 43.988 84.1439 43.5C83.8639 43.012 83.7239 42.46 83.7239 41.844C83.7239 41.228 83.8559 40.676 84.1199 40.188C84.3919 39.7 84.7599 39.32 85.2239 39.048C85.6959 38.776 86.2239 38.64 86.8079 38.64C87.3919 38.64 87.9159 38.776 88.3799 39.048C88.8439 39.32 89.2079 39.7 89.4719 40.188C89.7359 40.668 89.8679 41.22 89.8679 41.844L89.8559 42.108ZM86.8079 39.372C86.1999 39.372 85.6879 39.568 85.2719 39.96C84.8639 40.344 84.6319 40.848 84.5759 41.472H89.0519C88.9959 40.848 88.7599 40.344 88.3439 39.96C87.9359 39.568 87.4239 39.372 86.8079 39.372ZM92.4181 39.924C92.6181 39.5 92.9141 39.18 93.3061 38.964C93.7061 38.748 94.1981 38.64 94.7821 38.64V39.468L94.5781 39.456C93.9141 39.456 93.3941 39.66 93.0181 40.068C92.6421 40.476 92.4541 41.048 92.4541 41.784V45H91.6021V38.688H92.4181V39.924ZM99.9183 44.616C99.7583 44.76 99.5583 44.872 99.3183 44.952C99.0863 45.024 98.8423 45.06 98.5863 45.06C97.9943 45.06 97.5383 44.9 97.2183 44.58C96.8983 44.26 96.7383 43.808 96.7383 43.224V39.408H95.6103V38.688H96.7383V37.308H97.5903V38.688H99.5103V39.408H97.5903V43.176C97.5903 43.552 97.6823 43.84 97.8663 44.04C98.0583 44.232 98.3303 44.328 98.6823 44.328C98.8583 44.328 99.0263 44.3 99.1863 44.244C99.3543 44.188 99.4983 44.108 99.6183 44.004L99.9183 44.616ZM103.161 45.06C102.649 45.06 102.157 44.988 101.685 44.844C101.221 44.692 100.857 44.504 100.593 44.28L100.977 43.608C101.241 43.816 101.573 43.988 101.973 44.124C102.373 44.252 102.789 44.316 103.221 44.316C103.797 44.316 104.221 44.228 104.493 44.052C104.773 43.868 104.913 43.612 104.913 43.284C104.913 43.052 104.837 42.872 104.685 42.744C104.533 42.608 104.341 42.508 104.109 42.444C103.877 42.372 103.569 42.304 103.185 42.24C102.673 42.144 102.261 42.048 101.949 41.952C101.637 41.848 101.369 41.676 101.145 41.436C100.929 41.196 100.821 40.864 100.821 40.44C100.821 39.912 101.041 39.48 101.481 39.144C101.921 38.808 102.533 38.64 103.317 38.64C103.725 38.64 104.133 38.696 104.541 38.808C104.949 38.912 105.285 39.052 105.549 39.228L105.177 39.912C104.657 39.552 104.037 39.372 103.317 39.372C102.773 39.372 102.361 39.468 102.081 39.66C101.809 39.852 101.673 40.104 101.673 40.416C101.673 40.656 101.749 40.848 101.901 40.992C102.061 41.136 102.257 41.244 102.489 41.316C102.721 41.38 103.041 41.448 103.449 41.52C103.953 41.616 104.357 41.712 104.661 41.808C104.965 41.904 105.225 42.068 105.441 42.3C105.657 42.532 105.765 42.852 105.765 43.26C105.765 43.812 105.533 44.252 105.069 44.58C104.613 44.9 103.977 45.06 103.161 45.06Z" fill="#444444"/>
<path d="M38 78L40.0206 84.2188H46.5595L41.2694 88.0623L43.2901 94.2812L38 90.4377L32.7099 94.2812L34.7306 88.0623L29.4405 84.2188H35.9794L38 78Z" fill="#EFD445"/>
<path d="M59 78L61.0206 84.2188H67.5595L62.2694 88.0623L64.2901 94.2812L59 90.4377L53.7099 94.2812L55.7306 88.0623L50.4405 84.2188H56.9794L59 78Z" fill="#EFD445"/>
<path d="M80 78L82.0206 84.2188H88.5595L83.2694 88.0623L85.2901 94.2812L80 90.4377L74.7099 94.2812L76.7306 88.0623L71.4405 84.2188H77.9794L80 78Z" fill="#EFD445"/>
<path d="M101 78L103.021 84.2188H109.56L104.269 88.0623L106.29 94.2812L101 90.4377L95.7099 94.2812L97.7306 88.0623L92.4405 84.2188H98.9794L101 78Z" fill="#EFD445"/>
<path d="M122 78L124.021 84.2188H130.56L125.269 88.0623L127.29 94.2812L122 90.4377L116.71 94.2812L118.731 88.0623L113.44 84.2188H119.979L122 78Z" fill="#EFD445"/>
<path d="M220 43C214.48 42.9939 210.006 38.5203 210 33V32.8C210.11 27.3045 214.635 22.928 220.131 23.0009C225.627 23.0738 230.034 27.5689 229.998 33.0653C229.962 38.5618 225.497 42.9989 220 43ZM215.41 32.59L214 34L218 38L226 30L224.59 28.58L218 35.17L215.41 32.59Z" fill="#389351"/>
<path d="M38.7209 131.094C37.9464 132.402 36.0536 132.402 35.2791 131.094L21.4672 107.769C20.6778 106.436 21.6387 104.75 23.1881 104.75L50.8119 104.75C52.3613 104.75 53.3222 106.436 52.5328 107.769L38.7209 131.094Z" fill="white"/>
<g filter="url(#filter1_d_13_409)">
<rect x="163" y="101" width="39" height="42.1837" rx="10" fill="#389351"/>
</g>
<path d="M192.864 115.712L179.31 129.266L172.932 122.887L174.521 121.298L179.31 126.075L191.274 114.122L192.864 115.712Z" fill="white"/>
<defs>
<filter id="filter0_d_13_409" x="0" y="0" width="261" height="133" filterUnits="userSpaceOnUse" color-interpolation-filters="sRGB">
<feFlood flood-opacity="0" result="BackgroundImageFix"/>
<feColorMatrix in="SourceAlpha" type="matrix" values="0 0 0 0 0 0 0 0 0 0 0 0 0 0 0 0 0 0 127 0" result="hardAlpha"/>
<feOffset dy="2"/>
<feGaussianBlur stdDeviation="7.5"/>
<feComposite in2="hardAlpha" operator="out"/>
<feColorMatrix type="matrix" values="0 0 0 0 0 0 0 0 0 0 0 0 0 0 0 0 0 0 0.1 0"/>
<feBlend mode="normal" in2="BackgroundImageFix" result="effect1_dropShadow_13_409"/>
<feBlend mode="normal" in="SourceGraphic" in2="effect1_dropShadow_13_409" result="shape"/>
</filter>
<filter id="filter1_d_13_409" x="133" y="74" width="99" height="102.184" filterUnits="userSpaceOnUse" color-interpolation-filters="sRGB">
<feFlood flood-opacity="0" result="BackgroundImageFix"/>
<feColorMatrix in="SourceAlpha" type="matrix" values="0 0 0 0 0 0 0 0 0 0 0 0 0 0 0 0 0 0 127 0" result="hardAlpha"/>
<feOffset dy="3"/>
<feGaussianBlur stdDeviation="15"/>
<feComposite in2="hardAlpha" operator="out"/>
<feColorMatrix type="matrix" values="0 0 0 0 0.218979 0 0 0 0 0.575 0 0 0 0 0.318665 0 0 0 0.3 0"/>
<feBlend mode="normal" in2="BackgroundImageFix" result="effect1_dropShadow_13_409"/>
<feBlend mode="normal" in="SourceGraphic" in2="effect1_dropShadow_13_409" result="shape"/>
</filter>
</defs>
</svg>
