<svg width="31" height="29" viewBox="0 0 31 29" fill="none" xmlns="http://www.w3.org/2000/svg">
<path d="M2.76621 16.3657L23.71 16.3657L14.56 25.5157C13.8287 26.2469 13.8287 27.4469 14.56 28.1782C14.9103 28.5293 15.3859 28.7266 15.8818 28.7266C16.3778 28.7266 16.8534 28.5293 17.2037 28.1782L29.56 15.8219C30.2912 15.0907 30.2912 13.9094 29.56 13.1782L17.2037 0.821902C16.4725 0.0906518 15.2912 0.0906519 14.56 0.821902C13.8287 1.55315 13.8287 2.7344 14.56 3.46565L23.71 12.6157L2.76621 12.6157C1.73496 12.6157 0.891205 13.4594 0.891205 14.4907C0.891205 15.5219 1.73496 16.3657 2.76621 16.3657Z" fill="#5A59A4"/>
</svg>
